#N canvas 391 81 558 505 10;
#X obj 0 434 cnv 15 552 21 empty empty empty 20 12 0 14 -233017 -33289
0;
#X obj 1 275 cnv 3 550 3 empty empty inlets 8 12 0 13 -228856 -1 0
;
#N canvas 738 344 424 317 META 0;
#X text 12 125 HELP_PATCH_AUTHORS "pd meta" information added by Jonathan
Wilkes for Pd version 0.42.;
#X text 12 25 LICENSE GPL v2;
#X text 12 85 OUTLET_0 float;
#X text 12 105 AUTHOR Johannes Taelman (johannes.taelman@rug.ac.be)
;
#X text 12 5 KEYWORDS control;
#X text 12 65 INLET_0 float factor clear;
#X text 12 45 DESCRIPTION pass 1 in n input values;
#X restore 500 436 pd META;
#X obj 0 336 cnv 3 550 3 empty empty outlets 8 12 0 13 -228856 -1 0
;
#X obj 0 373 cnv 3 550 3 empty empty arguments 8 12 0 13 -228856 -1
0;
#N canvas 132 486 428 85 Related_objects 0;
#X obj 0 0 cnv 15 425 20 empty empty empty 3 12 0 14 -204280 -1 0;
#X text 6 1 Related Objects;
#X obj 9 29 bp~;
#X restore 196 437 pd Related_objects;
#X obj 0 0 cnv 15 552 40 empty empty decimator 3 12 0 18 -204280 -1
0;
#X text 99 347 float;
#X text 82 398 1) float;
#X obj 79 345 cnv 17 3 17 empty empty 0 5 9 0 16 -228856 -162280 0
;
#X obj 79 285 cnv 17 3 35 empty empty 0 5 9 0 16 -228856 -162280 0
;
#X obj 84 71 tgl 15 0 empty empty empty 0 -6 0 8 -262144 -1 -1 1 1
;
#X text 99 307 float;
#X obj 84 49 loadbang;
#X obj 190 251 print;
#X msg 220 145 -10;
#X floatatom 190 106 5 0 0 0 - - -, f 5;
#X msg 292 141 clear;
#X obj 103 229 bng 15 250 50 0 empty empty empty 17 7 0 10 -262144
-1 -1;
#N canvas 635 477 450 300 counter 0;
#X obj 91 26 inlet;
#X obj 91 68 f;
#X obj 127 68 + 1;
#X msg 163 34 0;
#X obj 91 218 outlet;
#X floatatom 104 103 5 0 0 0 - - -, f 5;
#X obj 91 140 t f f;
#X obj 118 176 moses 10;
#X connect 0 0 1 0;
#X connect 1 0 2 0;
#X connect 1 0 5 0;
#X connect 1 0 6 0;
#X connect 2 0 1 1;
#X connect 3 0 1 0;
#X connect 6 0 4 0;
#X connect 6 1 7 0;
#X connect 7 1 3 0;
#X restore 190 66 pd counter;
#X obj 103 208 bng 15 250 50 0 empty empty empty 17 7 0 10 -262144
-1 -1;
#X obj 84 90 metro 500;
#X msg 291 113 factor 4;
#X obj 190 212 smlib/decimator 3;
#X obj 492 6 decimator;
#X text 11 21 reduces the number of floats in a stream;
#X text 99 283 factor f;
#X text 174 285 - sets the reduction factor to one in every f;
#X text 174 308 - input float stream;
#X text 174 347 - reduced float stream;
#X text 174 398 - set initial reduction factor;
#X connect 11 0 21 0;
#X connect 13 0 11 0;
#X connect 15 0 23 0;
#X connect 16 0 20 0;
#X connect 16 0 23 0;
#X connect 17 0 23 0;
#X connect 19 0 16 0;
#X connect 21 0 19 0;
#X connect 22 0 23 0;
#X connect 23 0 14 0;
#X connect 23 0 18 0;
