#N canvas 455 82 558 505 10;
#X obj -1 492 cnv 15 552 21 empty empty empty 20 12 0 14 -233017 -33289
0;
#X obj 1 261 cnv 3 550 3 empty empty inlets 8 12 0 13 -228856 -1 0
;
#N canvas 732 347 424 317 META 0;
#X text 12 175 HELP_PATCH_AUTHORS "pd meta" information added by Jonathan
Wilkes for Pd version 0.42.;
#X text 12 25 LICENSE GPL v2;
#X text 12 155 AUTHOR Johannes Taelman (johannes.taelman@rug.ac.be)
;
#X text 12 45 DESCRIPTION binary index to value;
#X text 12 5 KEYWORDS control;
#X text 12 75 INLET_0 float absolute clear;
#X text 12 95 OUTLET_0 float;
#X text 12 115 OUTLET_1 float;
#X text 12 135 OUTLET_2 float;
#X restore 499 494 pd META;
#X obj 0 321 cnv 3 550 3 empty empty outlets 8 12 0 13 -228856 -1 0
;
#X obj 0 406 cnv 3 550 3 empty empty arguments 8 12 0 13 -228856 -1
0;
#N canvas 130 487 428 85 Related_objects 0;
#X obj 0 0 cnv 15 425 20 empty empty empty 3 12 0 14 -204280 -1 0;
#X text 6 1 Related Objects;
#X restore 195 495 pd Related_objects;
#X obj 0 0 cnv 15 552 40 empty empty itov 3 12 0 18 -204280 -1 0;
#X obj 79 330 cnv 17 3 17 empty empty 0 5 9 0 16 -228856 -162280 0
;
#X obj 79 271 cnv 17 3 35 empty empty 0 5 9 0 16 -228856 -162280 0
;
#X text 82 427 a) float;
#X text 82 445 b) float;
#X text 82 463 c) float;
#X text 99 287 list;
#X text 174 271 - input float;
#X text 99 270 float;
#X msg 46 65 clear;
#X floatatom 175 243 5 0 0 0 - - -, f 5;
#X floatatom 123 244 5 0 0 0 - - -, f 5;
#X floatatom 228 243 5 0 0 0 - - -, f 5;
#X msg 186 69 absolute;
#X floatatom 129 135 5 0 0 0 - - -, f 5;
#X msg 94 45 4.6;
#X msg 130 45 5.4;
#X msg 164 45 5.6;
#X floatatom 45 112 5 0 0 0 - - -, f 5;
#X obj 123 92 smlib/hist 0 10 10;
#X obj 123 114 smlib/vcog;
#X obj 123 190 smlib/itov 0 10 10;
#X obj 505 6 itov;
#X text 311 71 [itov] is an incomplete object.;
#X text 174 427 - value of first class;
#X text 174 445 - value of last class;
#X text 174 462 - number of classes;
#X obj 79 354 cnv 17 3 17 empty empty 1 5 9 0 16 -228856 -162280 0
;
#X obj 79 378 cnv 17 3 17 empty empty 2 5 9 0 16 -228856 -162280 0
;
#X text 99 332 float;
#X text 99 356 float;
#X text 99 380 float;
#X text 174 356 - scaled value;
#X text 174 332 - not used;
#X text 174 380 - not used;
#X text 174 288 - not implemented;
#X text 11 23 index to value, f 71;
#X connect 15 0 25 0;
#X connect 19 0 25 0;
#X connect 21 0 19 0;
#X connect 21 0 25 0;
#X connect 22 0 19 0;
#X connect 22 0 25 0;
#X connect 23 0 19 0;
#X connect 23 0 25 0;
#X connect 24 0 27 0;
#X connect 25 0 26 0;
#X connect 26 0 20 0;
#X connect 26 0 27 0;
#X connect 27 0 17 0;
#X connect 27 1 16 0;
#X connect 27 2 18 0;
