#N canvas 455 82 558 505 10;
#X obj -1 593 cnv 15 552 21 empty empty empty 20 12 0 14 -233017 -33289
0;
#X obj 1 290 cnv 3 550 3 empty empty inlets 8 12 0 13 -228856 -1 0
;
#N canvas 728 349 424 317 META 0;
#X text 12 125 HELP_PATCH_AUTHORS "pd meta" information added by Jonathan
Wilkes for Pd version 0.42.;
#X text 12 25 LICENSE GPL v2;
#X text 12 105 AUTHOR Johannes Taelman (johannes.taelman@rug.ac.be)
;
#X text 12 5 KEYWORDS control;
#X text 12 45 DESCRIPTION "leaky" histograms without clipping the input
;
#X text 12 65 INLET_0 float list leak absolute relative clear;
#X text 12 85 OUTLET_0 list;
#X restore 499 595 pd META;
#X obj 0 415 cnv 3 550 3 empty empty outlets 8 12 0 13 -228856 -1 0
;
#X obj 0 453 cnv 3 550 3 empty empty arguments 8 12 0 13 -228856 -1
0;
#N canvas 126 489 428 85 Related_objects 0;
#X obj 0 0 cnv 15 425 20 empty empty empty 3 12 0 14 -204280 -1 0;
#X text 6 1 Related Objects;
#X obj 4 26 smlib/lhist;
#X restore 195 596 pd Related_objects;
#X obj 0 0 cnv 15 552 40 empty empty lhisti 3 12 0 18 -204280 -1 0
;
#X obj 79 424 cnv 17 3 17 empty empty 0 5 9 0 16 -228856 -162280 0
;
#X obj 79 300 cnv 17 3 50 empty empty 0 5 9 0 16 -228856 -162280 0
;
#X text 82 472 a) float;
#X obj 101 266 print;
#X obj 101 70 random 10;
#X obj 101 50 bng 15 250 50 0 empty empty empty 0 -6 0 8 -262144 -1
-1;
#X msg 226 127 absolute;
#X msg 294 127 relative;
#X msg 52 71 clear;
#X floatatom 143 269 8 0 0 0 - - -, f 8;
#X msg 107 93 1 3 5 7 9;
#X msg 185 126 leak;
#X msg 113 114 -5;
#X obj 143 248 smlib/vsum;
#X text 99 299 absolute;
#X text 174 339 - input float;
#X text 99 338 float;
#X text 99 318 clear;
#X text 99 357 list;
#X text 99 377 leak;
#X text 99 395 relative;
#X text 174 358 - input list of floats;
#X text 174 378 - perform leak;
#X text 174 300 - generate absolute histogram;
#X obj 185 70 metro 500;
#X obj 185 50 tgl 15 0 empty empty empty 17 7 0 10 -262144 -1 -1 1
1;
#X obj 185 93 t b b;
#X obj 267 70 metro 500;
#X obj 267 50 tgl 15 0 empty empty empty 17 7 0 10 -262144 -1 -1 0
1;
#X obj 267 93 t b b;
#X text 99 426 list;
#X text 174 472 - value of first class;
#X text 174 490 - value of last class;
#X text 82 490 b) float;
#X text 82 509 c) float;
#X text 174 509 - number of classes;
#X text 82 527 d) float;
#X text 174 527 - half-decay time;
#X obj 0 550 cnv 3 550 3 empty empty more_info 8 12 0 13 -228856 -1
0;
#X text 174 426 - array of samples in classes;
#X text 174 319 - reinitialize histogram bins;
#X text 174 396 - generate relative histogram;
#X text 11 23 "leaky" histograms without clipping the input, f 71
;
#X obj 505 6 lhisti;
#X obj 101 198 smlib/lhisti 0 10 10 5;
#X text 82 569 out-of-range inputs are not clipped;
#X connect 11 0 51 0;
#X connect 12 0 11 0;
#X connect 13 0 51 0;
#X connect 14 0 51 0;
#X connect 15 0 51 0;
#X connect 17 0 51 0;
#X connect 18 0 51 0;
#X connect 19 0 51 0;
#X connect 20 0 16 0;
#X connect 31 0 33 0;
#X connect 32 0 31 0;
#X connect 33 0 18 0;
#X connect 33 1 13 0;
#X connect 34 0 36 0;
#X connect 35 0 34 0;
#X connect 36 0 18 0;
#X connect 36 1 14 0;
#X connect 51 0 10 0;
#X connect 51 0 20 0;
