#N canvas 455 82 558 505 10;
#X obj -1 522 cnv 15 552 21 empty empty empty 20 12 0 14 -233017 -33289
0;
#X obj 1 290 cnv 3 550 3 empty empty inlets 8 12 0 13 -228856 -1 0
;
#N canvas 726 350 424 317 META 0;
#X text 12 165 HELP_PATCH_AUTHORS "pd meta" information added by Jonathan
Wilkes for Pd version 0.42.;
#X text 12 25 LICENSE GPL v2;
#X text 12 145 AUTHOR Johannes Taelman (johannes.taelman@rug.ac.be)
;
#X text 12 5 KEYWORDS control;
#X text 12 125 OUTLET_0 list;
#X text 12 45 DESCRIPTION generate a vector with linear spaced floats
;
#X text 12 65 INLET_0 bang float;
#X text 12 85 INLET_1 float;
#X text 12 105 INLET_2 float;
#X restore 499 524 pd META;
#X obj 0 401 cnv 3 550 3 empty empty outlets 8 12 0 13 -228856 -1 0
;
#X obj 0 439 cnv 3 550 3 empty empty arguments 8 12 0 13 -228856 -1
0;
#N canvas 126 489 428 85 Related_objects 0;
#X obj 0 0 cnv 15 425 20 empty empty empty 3 12 0 14 -204280 -1 0;
#X text 6 1 Related Objects;
#X obj 4 26 smlib/lhist;
#X restore 195 525 pd Related_objects;
#X obj 0 0 cnv 15 552 40 empty empty linspace 3 12 0 18 -204280 -1
0;
#X obj 79 410 cnv 17 3 17 empty empty 0 5 9 0 16 -228856 -162280 0
;
#X obj 79 300 cnv 17 3 35 empty empty 0 5 9 0 16 -228856 -162280 0
;
#X text 82 458 a) float;
#X text 99 412 list;
#X text 82 476 b) float;
#X obj 85 259 print linspace;
#X floatatom 202 164 5 0 0 0 - - -, f 5;
#X floatatom 143 164 5 0 0 0 - - -, f 5;
#X floatatom 101 164 5 0 0 0 - - -, f 5;
#X obj 85 103 bng 15 250 50 0 empty empty empty 0 -6 0 8 -262144 -1
-1;
#X text 102 60 generate;
#X text 200 104 set n;
#X obj 85 208 smlib/linspace 0 1 4;
#X obj 85 80 metro 500;
#X obj 85 59 tgl 15 0 empty empty empty 17 7 0 10 -262144 -1 -1 0 1
;
#X obj 164 60 hsl 128 15 0 127 0 0 empty empty set_a 2 7 0 12 -262144
-1 -1 8300 1;
#X obj 164 80 hsl 128 15 0 127 0 0 empty empty set_b 2 7 0 12 -262144
-1 -1 5100 1;
#X obj 202 120 hradio 15 1 0 10 empty empty empty 0 -8 0 10 -262144
-1 -1 2;
#X obj 202 142 + 2;
#X text 11 23 generates a vector with linear spaced floats, f 71;
#X obj 491 6 linspace;
#X text 99 299 bang;
#X text 99 318 float;
#X obj 79 344 cnv 17 3 17 empty empty 1 5 9 0 16 -228856 -162280 0
;
#X obj 79 372 cnv 17 3 17 empty empty 2 5 9 0 16 -228856 -162280 0
;
#X text 99 343 float;
#X text 99 371 float;
#X text 174 319 - set a: start value;
#X text 174 344 - set b: end value;
#X text 174 412 - n values between a and b;
#X text 174 458 - value of a;
#X text 174 476 - value of b;
#X text 174 495 - number of floats;
#X text 174 372 - set n: number of floats;
#X text 174 300 - generate vector of n floats between a and b;
#X text 82 495 n) float;
#X connect 13 0 19 2;
#X connect 14 0 19 1;
#X connect 15 0 19 0;
#X connect 16 0 19 0;
#X connect 19 0 12 0;
#X connect 20 0 16 0;
#X connect 21 0 20 0;
#X connect 22 0 15 0;
#X connect 23 0 14 0;
#X connect 24 0 25 0;
#X connect 25 0 13 0;
