#N canvas 451 84 558 505 10;
#X obj -1 515 cnv 15 552 21 empty empty empty 20 12 0 14 -233017 -33289
0;
#X obj 1 270 cnv 3 550 3 empty empty inlets 8 12 0 13 -228856 -1 0
;
#N canvas 708 359 424 317 META 0;
#X text 12 145 HELP_PATCH_AUTHORS "pd meta" information added by Jonathan
Wilkes for Pd version 0.42.;
#X text 12 25 LICENSE GPL v2;
#X text 12 125 AUTHOR Johannes Taelman (johannes.taelman@rug.ac.be)
;
#X text 12 5 KEYWORDS control list_op;
#X text 12 65 INLET_0 list float;
#X text 12 105 OUTLET_0 list float;
#X text 12 45 DESCRIPTION compute the modulo of each element in a vector
;
#X text 12 85 INLET_1 float;
#X restore 499 517 pd META;
#X obj 0 353 cnv 3 550 3 empty empty outlets 8 12 0 13 -228856 -1 0
;
#X obj 0 429 cnv 3 550 3 empty empty arguments 8 12 0 13 -228856 -1
0;
#N canvas 116 494 428 85 Related_objects 0;
#X obj 0 0 cnv 15 425 20 empty empty empty 3 12 0 14 -204280 -1 0;
#X text 6 1 Related Objects;
#X restore 195 518 pd Related_objects;
#X obj 79 283 cnv 17 3 35 empty empty 0 5 9 0 16 -228856 -162280 0
;
#X text 99 281 float;
#X text 174 282 - input value;
#X text 99 305 list;
#X obj 79 365 cnv 17 3 50 empty empty 0 5 9 0 16 -228856 -162280 0
;
#X text 99 363 float;
#X text 99 387 list;
#X obj 0 473 cnv 3 550 3 empty empty more_info 8 12 0 13 -228856 -1
0;
#X text 174 306 - list of input values (floats);
#X obj 0 1 cnv 15 552 40 empty empty vfmod 3 12 0 18 -204280 -1 0;
#X obj 498 5 vdelta;
#X obj 83 241 print;
#X floatatom 158 104 5 0 0 0 - - -, f 5;
#X msg 83 56 0 0.5 1 1.5 2 2.5 3 3.5;
#X msg 94 81 0 -0.5 -1 -1.5 -2 -2.5 -3 -3.5;
#X obj 83 171 smlib/vfmod 2;
#X text 11 23 vfmod computes the modulo of each element in a vector
, f 71;
#X text 174 364 - output value = current input value % argument;
#X text 174 388 - list of output values. Each output list value = current
input value % argument;
#X text 89 445 the default modulo base;
#X obj 79 329 cnv 17 3 17 empty empty 1 5 9 0 16 -228856 -162280 0
;
#X text 99 327 float;
#X text 174 328 - modulo base;
#X text 89 488 base zero becomes one default argument is 1;
#X connect 18 0 21 1;
#X connect 19 0 21 0;
#X connect 20 0 21 0;
#X connect 21 0 17 0;
#X coords 0 10100 20 10080 0 0 0;
