#N canvas 449 85 558 505 10;
#X obj -1 500 cnv 15 552 21 empty empty empty 20 12 0 14 -233017 -33289
0;
#X obj 1 336 cnv 3 550 3 empty empty inlets 8 12 0 13 -228856 -1 0
;
#N canvas 704 361 424 317 META 0;
#X text 12 125 HELP_PATCH_AUTHORS "pd meta" information added by Jonathan
Wilkes for Pd version 0.42.;
#X text 12 25 LICENSE GPL v2;
#X text 12 105 AUTHOR Johannes Taelman (johannes.taelman@rug.ac.be)
;
#X text 12 5 KEYWORDS control list_op;
#X text 12 45 DESCRIPTION vector leaky average;
#X text 12 65 INLET_0 list float decay;
#X text 12 85 OUTLET_0 list float;
#X restore 499 502 pd META;
#X obj 0 409 cnv 3 550 3 empty empty outlets 8 12 0 13 -228856 -1 0
;
#X obj 0 460 cnv 3 550 3 empty empty arguments 8 12 0 13 -228856 -1
0;
#N canvas 116 494 428 85 Related_objects 0;
#X obj 0 0 cnv 15 425 20 empty empty empty 3 12 0 14 -204280 -1 0;
#X text 6 1 Related Objects;
#X restore 195 503 pd Related_objects;
#X obj 79 349 cnv 17 3 50 empty empty 0 5 9 0 16 -228856 -162280 0
;
#X text 99 365 float;
#X text 99 384 list;
#X obj 79 421 cnv 17 3 17 empty empty 0 5 9 0 16 -228856 -162280 0
;
#X text 99 419 float;
#X obj 0 1 cnv 15 552 40 empty empty vlavg 3 12 0 18 -204280 -1 0;
#X msg 80 49 1 1 1 1 1 1 1 1 1 1;
#X msg 80 68 1 0 1 0 1 0 1 0 1 0;
#X msg 80 87 0 1 0 1 0 1 0 1 0 1;
#X msg 80 106 0 0 0 0 0 0 0 0 0 0;
#X msg 80 125 -1 -1 0 0 -1 -1 0 0 -1 -1;
#X msg 80 144 0 0 0 0 0 1 1 1 1 1;
#X msg 99 203 decay 20;
#X obj 80 296 list trim;
#X obj 80 277 list prepend 0;
#X obj 80 315 s \$0-vlavg;
#N canvas 0 50 450 300 (subpatch) 0;
#X array \$0-vlavg 10 float 0;
#X coords 0 1 9 -1 200 140 1 0 0;
#X restore 322 188 graph;
#X obj 80 227 smlib/vlavg 6;
#X obj 504 6 vlavg;
#X text 174 366 - input value;
#X text 174 385 - list of input values;
#X text 99 346 decay n;
#X text 174 347 - half-decay expressed in activations;
#X text 84 478 the argument is the half-decay expressed in number of
activations, f 65;
#X text 11 23 vector leaky average, f 71;
#X msg 50 49 0;
#X text 99 439 list;
#X text 174 420 - the average of the current and previous input values
;
#X text 174 439 - list of averages of the current and previous input
values;
#X connect 12 0 23 0;
#X connect 13 0 23 0;
#X connect 14 0 23 0;
#X connect 15 0 23 0;
#X connect 16 0 23 0;
#X connect 17 0 23 0;
#X connect 18 0 23 0;
#X connect 19 0 21 0;
#X connect 20 0 19 0;
#X connect 23 0 20 0;
#X connect 31 0 23 0;
#X coords 0 10100 20 10080 0 0 0;
