#N canvas 447 86 558 505 10;
#X obj -1 493 cnv 15 552 21 empty empty empty 20 12 0 14 -233017 -33289
0;
#X obj 1 313 cnv 3 550 3 empty empty inlets 8 12 0 13 -228856 -1 0
;
#N canvas 694 366 424 317 META 0;
#X text 12 145 HELP_PATCH_AUTHORS "pd meta" information added by Jonathan
Wilkes for Pd version 0.42.;
#X text 12 25 LICENSE GPL v2;
#X text 12 125 AUTHOR Johannes Taelman (johannes.taelman@rug.ac.be)
;
#X text 12 65 INLET_0 list float;
#X text 12 45 DESCRIPTION minimum of a list of floats;
#X text 12 5 KEYWORDS control list_op;
#X text 12 85 OUTLET_0 float;
#X text 12 105 OUTLET_1 float;
#X restore 499 495 pd META;
#X obj 0 393 cnv 3 550 3 empty empty outlets 8 12 0 13 -228856 -1 0
;
#X obj 0 453 cnv 3 550 3 empty empty arguments 8 12 0 13 -228856 -1
0;
#N canvas 116 494 428 85 Related_objects 0;
#X obj 0 0 cnv 15 425 20 empty empty empty 3 12 0 14 -204280 -1 0;
#X text 6 1 Related Objects;
#X restore 195 496 pd Related_objects;
#X obj 79 326 cnv 17 3 50 empty empty 0 5 9 0 16 -228856 -162280 0
;
#X text 99 345 float;
#X text 99 363 list;
#X obj 79 405 cnv 17 3 17 empty empty 0 5 9 0 16 -228856 -162280 0
;
#X text 99 403 float;
#X obj 0 1 cnv 15 552 40 empty empty vlmin 3 12 0 18 -204280 -1 0;
#X text 174 346 - input value;
#X text 174 364 - list of input values;
#X text 11 23 finds the minimum and its location in the list, f 76
;
#X obj 517 6 vmin;
#X text 174 404 - the minimum value in the list;
#N canvas 1 79 450 300 (subpatch) 0;
#X array \$0_vlmin 10 float 0;
#X coords 0 1 9 -1 200 140 1;
#X restore 319 58 graph;
#X msg 88 44 1 1 1 1 1 1 1 1 1 1;
#X msg 88 63 1 0 1 0 1 0 1 0 1 0;
#X msg 88 82 0 1 0 1 0 1 0 1 0 1;
#X msg 88 101 0 0 0 0 0 0 0 0 0 0;
#X msg 88 120 -1 -1 0 0 -1 -1 0 0 -1 -1;
#X msg 88 139 0 0 0 0 0 1 1 1 1 1;
#X msg 174 161 decay 20;
#X obj 88 272 list trim;
#X obj 88 253 list prepend 0;
#X obj 88 210 smlib/vlmin 6;
#X obj 88 291 s \$0_vlmin;
#X text 99 324 decay n;
#X text 174 326 - the half-decay expressed in number of activations
;
#X text 90 468 the default half-decay expressed in number of activations
;
#X text 99 422 list;
#X text 174 423 - list of input values;
#X connect 18 0 27 0;
#X connect 19 0 27 0;
#X connect 20 0 27 0;
#X connect 21 0 27 0;
#X connect 22 0 27 0;
#X connect 23 0 27 0;
#X connect 24 0 27 0;
#X connect 25 0 28 0;
#X connect 26 0 25 0;
#X connect 27 0 26 0;
#X coords 0 10100 20 10080 0 0 0;
