#N canvas 449 85 558 505 10;
#X obj -1 465 cnv 15 552 21 empty empty empty 20 12 0 14 -233017 -33289
0;
#X obj 1 342 cnv 3 550 3 empty empty inlets 8 12 0 13 -228856 -1 0
;
#N canvas 708 359 424 317 META 0;
#X text 12 125 HELP_PATCH_AUTHORS "pd meta" information added by Jonathan
Wilkes for Pd version 0.42.;
#X text 12 25 LICENSE GPL v2;
#X text 12 105 AUTHOR Johannes Taelman (johannes.taelman@rug.ac.be)
;
#X text 12 65 INLET_0 list float;
#X text 12 85 OUTLET_0 float list;
#X text 12 5 KEYWORDS control list_op;
#X text 12 45 DESCRIPTION sum of a list of floats;
#X restore 499 467 pd META;
#X obj 0 386 cnv 3 550 3 empty empty outlets 8 12 0 13 -228856 -1 0
;
#X obj 0 434 cnv 3 550 3 empty empty arguments 8 12 0 13 -228856 -1
0;
#N canvas 116 494 428 85 Related_objects 0;
#X obj 0 0 cnv 15 425 20 empty empty empty 3 12 0 14 -204280 -1 0;
#X text 6 1 Related Objects;
#X restore 195 468 pd Related_objects;
#X obj 0 0 cnv 15 552 40 empty empty vsum 3 12 0 18 -204280 -1 0;
#X obj 79 355 cnv 17 3 17 empty empty 0 5 9 0 16 -228856 -162280 0
;
#X text 99 356 list;
#X obj 79 401 cnv 17 3 17 empty empty 0 5 9 0 16 -228856 -162280 0
;
#X text 99 403 float;
#X text 174 402 - the standard deviation if the list values;
#X text 174 357 - list of input values (floats);
#X msg 80 80 1 2 3 4;
#X msg 147 80 3 4 5;
#X msg 199 80 0;
#X obj 80 190 smlib/vsum;
#X floatatom 80 292 5 0 0 0 - - -, f 5;
#X text 11 23 vsum computes the sum of a list of floats, f 71;
#X obj 508 5 vsum;
#X connect 13 0 16 0;
#X connect 14 0 16 0;
#X connect 15 0 16 0;
#X connect 16 0 17 0;
